<svg width="141" height="48" viewBox="0 0 141 48" fill="none" xmlns="http://www.w3.org/2000/svg">
<path d="M48 24C48 37.2548 37.2548 48 24 48C10.7452 48 0 37.2548 0 24C0 10.7452 10.7452 0 24 0C37.2548 0 48 10.7452 48 24Z" fill="#4159BE"/>
<path d="M24.8775 35.628C22.7355 35.628 20.835 35.145 19.176 34.179C17.517 33.192 16.215 31.848 15.27 30.147C14.325 28.425 13.8525 26.451 13.8525 24.225C13.8525 21.999 14.325 20.0355 15.27 18.3345C16.215 16.6125 17.5065 15.2685 19.1445 14.3025C20.8035 13.3155 22.704 12.822 24.846 12.822C26.358 12.822 27.765 13.095 29.067 13.641C30.369 14.166 31.503 14.9115 32.469 15.8775C33.456 16.8225 34.212 17.9145 34.737 19.1535L30.7365 20.634C30.3795 19.857 29.907 19.185 29.319 18.618C28.731 18.03 28.059 17.5785 27.303 17.2635C26.547 16.9275 25.728 16.7595 24.846 16.7595C23.565 16.7595 22.4205 17.085 21.4125 17.736C20.4255 18.366 19.6485 19.2375 19.0815 20.3505C18.5355 21.4635 18.2625 22.755 18.2625 24.225C18.2625 25.695 18.546 26.997 19.113 28.131C19.68 29.244 20.4675 30.126 21.4755 30.777C22.4835 31.407 23.6385 31.722 24.9405 31.722C25.8435 31.722 26.6625 31.554 27.3975 31.218C28.1535 30.861 28.815 30.378 29.382 29.769C29.97 29.16 30.4425 28.4565 30.7995 27.6585L34.8 29.1075C34.275 30.3885 33.519 31.5225 32.532 32.5095C31.566 33.4965 30.432 34.263 29.13 34.809C27.828 35.355 26.4105 35.628 24.8775 35.628Z" fill="white"/>
<path d="M69.86 37.432C67.412 37.432 65.24 36.88 63.344 35.776C61.448 34.648 59.96 33.112 58.88 31.168C57.8 29.2 57.26 26.944 57.26 24.4C57.26 21.856 57.8 19.612 58.88 17.668C59.96 15.7 61.436 14.164 63.308 13.06C65.204 11.932 67.376 11.368 69.824 11.368C71.552 11.368 73.16 11.68 74.648 12.304C76.136 12.904 77.432 13.756 78.536 14.86C79.664 15.94 80.528 17.188 81.128 18.604L76.556 20.296C76.148 19.408 75.608 18.64 74.936 17.992C74.264 17.32 73.496 16.804 72.632 16.444C71.768 16.06 70.832 15.868 69.824 15.868C68.36 15.868 67.052 16.24 65.9 16.984C64.772 17.704 63.884 18.7 63.236 19.972C62.612 21.244 62.3 22.72 62.3 24.4C62.3 26.08 62.624 27.568 63.272 28.864C63.92 30.136 64.82 31.144 65.972 31.888C67.124 32.608 68.444 32.968 69.932 32.968C70.964 32.968 71.9 32.776 72.74 32.392C73.604 31.984 74.36 31.432 75.008 30.736C75.68 30.04 76.22 29.236 76.628 28.324L81.2 29.98C80.6 31.444 79.736 32.74 78.608 33.868C77.504 34.996 76.208 35.872 74.72 36.496C73.232 37.12 71.612 37.432 69.86 37.432Z" fill="#363C4A"/>
<path d="M92.9579 37.432C91.1099 37.432 89.4659 37.036 88.0259 36.244C86.6099 35.428 85.4939 34.312 84.6779 32.896C83.8619 31.48 83.4539 29.848 83.4539 28C83.4539 26.152 83.8499 24.52 84.6419 23.104C85.4579 21.688 86.5739 20.584 87.9899 19.792C89.4299 18.976 91.0619 18.568 92.8859 18.568C94.7579 18.568 96.4019 18.976 97.8179 19.792C99.2339 20.584 100.338 21.688 101.13 23.104C101.946 24.52 102.354 26.152 102.354 28C102.354 29.848 101.946 31.48 101.13 32.896C100.338 34.312 99.2339 35.428 97.8179 36.244C96.4259 37.036 94.8059 37.432 92.9579 37.432ZM92.9579 32.788C93.7979 32.788 94.5299 32.584 95.1539 32.176C95.8019 31.768 96.3059 31.204 96.6659 30.484C97.0259 29.764 97.2059 28.936 97.2059 28C97.2059 27.064 97.0139 26.236 96.6299 25.516C96.2699 24.796 95.7659 24.232 95.1179 23.824C94.4699 23.416 93.7259 23.212 92.8859 23.212C92.0699 23.212 91.3379 23.416 90.6899 23.824C90.0419 24.232 89.5379 24.796 89.1779 25.516C88.8179 26.236 88.6379 27.064 88.6379 28C88.6379 28.936 88.8179 29.764 89.1779 30.484C89.5379 31.204 90.0419 31.768 90.6899 32.176C91.3619 32.584 92.1179 32.788 92.9579 32.788Z" fill="#363C4A"/>
<path d="M105.759 37L105.795 11.8H110.547L110.511 37H105.759Z" fill="#363C4A"/>
<path d="M114.942 37V19H119.694V37H114.942ZM117.318 16.084C116.598 16.084 115.962 15.82 115.41 15.292C114.858 14.74 114.582 14.092 114.582 13.348C114.582 12.604 114.858 11.968 115.41 11.44C115.962 10.888 116.598 10.612 117.318 10.612C118.062 10.612 118.698 10.888 119.226 11.44C119.778 11.968 120.054 12.604 120.054 13.348C120.054 14.092 119.778 14.74 119.226 15.292C118.698 15.82 118.062 16.084 117.318 16.084Z" fill="#363C4A"/>
<path d="M132.751 37.432C130.879 37.432 129.211 37.036 127.747 36.244C126.283 35.428 125.143 34.312 124.327 32.896C123.511 31.456 123.103 29.824 123.103 28C123.103 26.152 123.511 24.52 124.327 23.104C125.143 21.688 126.271 20.584 127.711 19.792C129.151 18.976 130.807 18.568 132.679 18.568C134.479 18.568 136.123 19.012 137.611 19.9C139.099 20.788 140.179 22.072 140.851 23.752L136.387 25.336C136.051 24.64 135.523 24.088 134.803 23.68C134.107 23.248 133.327 23.032 132.463 23.032C131.575 23.032 130.795 23.248 130.123 23.68C129.451 24.088 128.923 24.664 128.539 25.408C128.155 26.152 127.963 27.016 127.963 28C127.963 28.984 128.155 29.848 128.539 30.592C128.923 31.312 129.463 31.888 130.159 32.32C130.855 32.752 131.647 32.968 132.535 32.968C133.399 32.968 134.179 32.74 134.875 32.284C135.595 31.828 136.123 31.228 136.459 30.484L140.959 32.068C140.263 33.772 139.171 35.092 137.683 36.028C136.219 36.964 134.575 37.432 132.751 37.432Z" fill="#363C4A"/>
</svg>
